<?xml version="1.0" encoding="UTF-8" standalone="no"?>
<!-- Created with Inkscape (http://www.inkscape.org/) -->

<svg
   version="1.1"
   id="svg1"
   width="1024"
   height="1024"
   viewBox="0 0 1024 1024"
   xmlns="http://www.w3.org/2000/svg"
   xmlns:svg="http://www.w3.org/2000/svg">
  <defs
     id="defs1" />
  <g
     id="g1">
    <path
       style="fill:#f28327;stroke:none"
       d="m 505.14257,112.35259 c -35.73975,4.69269 -66.97638,15.30664 -97,35.92285 -5.78296,3.97095 -13.47183,8.51709 -17.14197,14.65356 -5.30093,8.86316 0.14496,20.7439 10.14197,22.65894 10.6521,2.04053 17.51761,-6.34607 25,-12.39813 7.29291,-5.89881 15.71158,-10.59308 24,-14.94135 26.95117,-14.13916 59.06503,-18.66302 89,-15.03473 23.54144,2.85333 46.03693,11.43207 66,24.15045 9.58789,6.1084 20.2251,21.04163 33,18.16895 9.88135,-2.22199 14.87451,-13.91425 9.91052,-22.60413 -5.61706,-9.83319 -19.6596,-16.64685 -28.91052,-22.65588 -31.78333,-20.6452 -76.01147,-32.90851 -114,-27.92053 m 15,60.28546 c -27.16547,0.36175 -51.50912,7.9472 -74,23.31872 -9.62292,6.57685 -22.32382,22.01581 -6.99536,30.88196 14.22534,8.22809 33.61792,-13.61029 46.99536,-18.47455 24.48361,-8.90264 51.35626,-6.91211 75,3.43982 10.62512,4.65198 20.76794,17.90583 33,17.00458 19.87976,-1.46472 12.57013,-23.56531 1.98535,-31.16046 -22.09411,-15.85364 -48.64191,-25.37415 -75.98535,-25.01007 m -5,61.73303 c -11.50433,1.67474 -27.86874,16.50787 -13.94522,27.04328 6.44333,4.87542 24.22427,3.69482 31.94522,2.28546 9.20959,-1.68116 11.72333,-13.58936 6.85571,-20.59803 -4.90576,-7.06366 -16.69781,-9.91827 -24.85571,-8.73071 m -100,449.55713 c 0,-11.59448 -2.63037,-26.81702 0.43365,-38 1.23468,-4.50623 5.72223,-8.78241 10.56635,-8.78241 4.77991,0 9.54553,4.25659 10.6821,8.78241 2.85431,11.36584 0.3179,26.26367 0.3179,38 h 39 c 0,-11.07019 -3.37381,-28.66248 0.74228,-38.96063 4.16977,-10.43244 17.37659,-9.57599 21.82407,-0.0386 4.95135,10.618 0.46887,27.43734 1.43365,38.99923 h 40 c 0,-11.68579 -2.53485,-26.67615 0.31787,-37.99927 1.10999,-4.40588 6.01373,-8.73376 10.68213,-8.73376 4.73138,0 9.36023,4.34607 10.56635,8.73376 3.07141,11.17346 0.43365,26.41199 0.43365,37.99927 h 34 c 0.0195,9.2478 4.53961,27.08264 18,20.53937 6.46478,-3.14264 11.64185,-9.59638 17,-14.25 11.90253,-10.33747 24.07422,-20.39215 36,-30.71375 6.0282,-5.21734 18.84741,-12.58453 18.7207,-21.57562 -0.0874,-6.2038 -4.8764,-9.99701 -9.14508,-13.74152 -8.49756,-7.45416 -17.01721,-14.87286 -25.57562,-22.25848 -11.20544,-9.66998 -22.27106,-22.2627 -35,-29.85571 -6.39172,-3.81275 -14.77576,-1.73743 -18.42749,4.89587 -4.75513,8.63757 -1.57251,25.26172 -1.57251,34.95984 h -154 c -17.03415,0 -45.24307,5.56183 -58.95987,-6.32874 -10.84811,-9.40374 -8.04013,-24.79583 -8.04013,-37.67126 v -94 -105 c 0,-15.77008 -2.94724,-34.40503 6.78857,-48 13.93168,-19.45404 39.35236,-15 60.21143,-15 h 143 c 18.35004,0 44.96606,-4.99579 61,5.38733 23.63763,15.30701 16.51532,53.32996 16.02472,77.65204 -0.91333,45.27984 -0.0247,90.67053 -0.0247,135.96063 v 43 c 0,6.09473 -1.31512,13.93896 0.31787,19.8302 2.19092,7.90405 18.79584,19.18921 25.68213,23.1698 v -216 c 0,-27.92346 7.31891,-67.49078 -8.54785,-92 -16.63239,-25.69189 -45.58942,-24 -72.45215,-24 h -177 c -28.82581,0 -58.05185,-0.1178 -73.67593,29 -13.01374,24.25299 -6.32407,61.18512 -6.32407,88 v 176 c 0,24.55591 -5.85266,57.95905 3.45294,81 10.83029,26.81616 36.05963,31 61.54706,31 m 8,-349.47839 c -27.30722,5.51178 -20.24774,47.83026 7,43.00695 27.66873,-4.89782 20.63965,-48.58581 -7,-43.00695 m 113,196.47839 c -1.22888,4.37311 -2.34052,8.45294 -1.31866,13 6.44079,28.66003 47.29467,19.06091 44.14428,-9 -1.15661,-10.302 -10.01697,-17.26361 -19.82562,-18.56787 -3.50861,-0.46655 -7.76544,1.15832 -11,-0.36035 -13.59955,-6.38538 -25.43903,-25.52777 -36,-36.07178 -3.75598,-3.74994 -10.72241,-7.99854 -12.68674,-13.01465 -1.52551,-3.89551 -1.2435,-13.5517 1.09415,-16.98535 7.81125,-11.47339 20.99371,-20.00269 30.55322,-30 6.90064,-7.21661 13.63477,-17.60156 22.75385,-22.20062 6.88318,-3.47144 14.34222,0.34106 21.27008,-5.19293 12.56067,-10.03345 10.94342,-31.60968 -3.98456,-38.68671 -9.26361,-4.39172 -21.13947,-1.74536 -27.60956,6.12036 -6.36157,7.73383 -1.34289,16.24457 -5.45447,23.24542 -4.35565,7.41638 -12.88525,13.66376 -18.93597,19.71448 -10.77124,10.77124 -21.15295,23.08313 -32.91125,32.75848 -3.91611,3.22235 -8.43512,0.97651 -13.08875,1.33564 -7.38461,0.56988 -13.9603,5.35382 -17.31558,11.90588 -4.24442,8.28833 -2.7573,19.07013 3.52853,25.94519 8.29239,9.06976 18.70471,2.7099 26.78705,8.41205 18.39606,12.97864 30.37866,36.40686 50,47.64276 m 46.68497,180.53649 c -10.64136,4.57654 -3.04645,21.67218 7.94061,16.69367 11.48816,-5.20563 3.22125,-21.49402 -7.94061,-16.69367 m -246.04395,1.14197 v 85 h 16 l -1,-61 h 1 c 4.42331,15.284 10.96613,29.91284 16,45 1.43234,4.29291 2.64914,13.36426 7.22455,15.39661 3.22879,1.4342 10.28683,1.37976 12.49768,-1.71448 3.87543,-5.42407 5.43802,-14.39258 7.62189,-20.68213 4.25567,-12.25641 10.75747,-25.14563 12.65588,-38 h 1 v 61 h 16 v -85 l -22.48999,1.02777 -6.51309,15.97223 -14.99692,45 -15.66666,-44 -6.84335,-16.97223 -22.48999,-1.02777 m 171,0 v 85 h 15 v -9 h 1 c 7.00098,13.37494 27.95871,13.05176 37.81482,2.89508 10.46051,-10.77954 11.18256,-32.23492 3.82178,-44.89508 -8.36603,-14.38916 -32.49811,-16.64325 -40.6366,-1 h -1 v -33 h -16 m 99,0 v 85 h 17 v -85 h -17 m -144,22.43909 c -43.62061,6.82373 -30.98425,70.41314 12,63.23529 39.88037,-6.65955 28.38037,-69.55219 -12,-63.23529 m 227,45.56091 c -4.33722,0 -9.6261,-0.82324 -13.83026,0.31714 -3.83356,1.03985 -6.15167,4.74011 -10.16974,5.64966 -9.77203,2.21222 -15.61322,-7.62458 -16,-15.9668 h 41 c 0,-11.15198 -0.50989,-23.01343 -10.01544,-30.60645 -18.60962,-14.86547 -46.43128,-0.55395 -48.81098,21.60645 -1.22259,11.38477 2.23151,24.40649 11.83027,31.36267 15.06768,10.91937 40.4588,6.81519 45.99615,-12.36267 m -111,17 h 16 v -62 l -14.97223,1.60339 -1.02777,16.39661 v 44 m 95,-38 h -24 c 1.53107,-16.99725 22.49969,-17.0542 24,0 m -207,-12.60876 c 20.57233,-1.55561 21.37573,37.82788 2,39.5 -21.04092,1.81573 -22.35687,-37.96076 -2,-39.5 m 69.00076,1.0285 c 19.64972,-4.81622 23.44715,32.83472 6.99539,37.45679 -20.28387,5.69873 -24.91436,-33.06476 -6.99539,-37.45679 m -72.35562,66.46283 c -12.42636,1.14331 -10.54422,19.69605 1.99924,18.10266 11.66589,-1.48193 9.58319,-19.16833 -1.99924,-18.10266 m -130,36.33179 c 0.87064,-3.64673 0.96796,-7.45935 2.24768,-11 2.67386,-7.39783 10.55914,-15.44196 18.70911,-10.10645 2.9563,1.93537 4.29495,6.03858 7.43286,7.50306 4.17038,1.94635 10.2503,-0.0525 14.61035,-0.39661 -4.93292,-21.31268 -31.77289,-30.25415 -47.89581,-13.90662 -12.31613,12.48767 -12.73554,34.74176 -9.64356,50.90662 5.29114,27.66193 52.66245,35.58289 58.21067,4 5.03085,-28.63782 -20.9375,-42.88416 -43.6713,-27 m 164,22 h -17 c 0.63892,29.99182 54.31262,36.54584 63.89124,9 1.00494,-2.88995 1.2019,-5.96149 1.06787,-9 -0.74244,-16.82831 -16.90216,-19.78656 -29.95911,-23.71991 -5.37512,-1.61926 -12.75577,-3.42706 -14.95062,-9.32025 -2.75952,-7.40924 5.6701,-12.35352 11.95062,-12.49689 7.26831,-0.16589 12.26495,4.89118 14,11.53705 h 18 c -3.89148,-26.35016 -51.65179,-36.33893 -60.19983,-8 -5.53372,18.34576 7.24841,28.38458 23.19983,32.37347 6.23126,1.55823 18.14905,2.82618 19.63812,10.63038 2.96503,15.53967 -27.79138,15.57818 -29.63812,-1.00385 m 127,-3 h -16 c -3.37024,14.18231 -19.91156,20.08539 -30.78705,8.86731 -13.40753,-13.82996 -8.48224,-50.67761 14.78705,-49.82336 11.22662,0.41223 9.79169,8.8814 16.70215,13.91748 3.63727,2.65063 12.00928,0.0736 16.29785,0.0386 -2.1322,-7.5697 -3.97931,-15.17865 -10.09338,-20.67126 -12.95826,-11.6413 -38.4112,-9.7035 -50.73609,1.97216 -11.56909,10.95972 -14.05865,28.52051 -11.87036,43.6991 5.44116,37.74121 68.3551,42.89404 71.69983,2 m -242,-54.00003 v 14 h 24 v 67 h 17 v -67 h 23 v -14 h -64 m 254,0 v 81 h 16 v -34 c 7.57037,0 25.2738,-3.30322 31.56635,1.02777 5.76312,3.96661 2.88043,26.89526 1.43365,32.97223 h 17 v -81 h -17 c 1.42072,5.96765 4.17444,27.90961 -1.46912,31.97223 -6.05401,4.35809 -24.13757,1.02777 -31.53088,1.02777 v -33 h -16 m -181,24 v 57 h 16 v -57 h -16 m -108,16.39124 c 17.19177,-1.27906 20.36401,27.85894 3,29.50305 -18.96759,1.7959 -21.69666,-28.11212 -3,-29.50305 z"
       id="path5" />
  </g>
</svg>
