<?xml version="1.0" encoding="UTF-8" standalone="no"?>
<svg
   version="1.1"
   id="Layer_1"
   x="0px"
   y="0px"
   width="100%"
   viewBox="0 0 1024 1024"
   enable-background="new 0 0 1024 1024"
   xml:space="preserve"
   sodipodi:docname="c2tcframework.svg"
   inkscape:version="1.4.2 (ebf0e940d0, 2025-05-08)"
   xmlns:inkscape="http://www.inkscape.org/namespaces/inkscape"
   xmlns:sodipodi="http://sodipodi.sourceforge.net/DTD/sodipodi-0.dtd"
   xmlns="http://www.w3.org/2000/svg"
   xmlns:svg="http://www.w3.org/2000/svg"><defs
   id="defs14" /><sodipodi:namedview
   id="namedview14"
   pagecolor="#ffffff"
   bordercolor="#000000"
   borderopacity="0.25"
   inkscape:showpageshadow="2"
   inkscape:pageopacity="0.0"
   inkscape:pagecheckerboard="0"
   inkscape:deskcolor="#d1d1d1"
   showgrid="false"
   inkscape:zoom="0.79199219"
   inkscape:cx="512"
   inkscape:cy="512"
   inkscape:window-width="1920"
   inkscape:window-height="1014"
   inkscape:window-x="0"
   inkscape:window-y="0"
   inkscape:window-maximized="1"
   inkscape:current-layer="Layer_1" />
<path
   fill="#000000"
   opacity="1.000000"
   stroke="none"
   d=" M521.985718,599.271179   C491.892365,610.535645 461.995392,593.839539 457.074005,562.466919   C453.768372,541.394226 463.407776,521.476685 484.996552,511.688507   C488.697510,510.010529 489.749573,508.081635 489.730194,504.237427   C489.582306,474.908203 489.560699,445.577423 489.736176,416.248505   C489.764374,411.532837 488.402344,409.837250 483.542633,409.864960   C453.714050,410.035065 423.883942,409.923401 394.054443,409.967682   C386.849884,409.978363 385.008148,411.790466 384.988159,418.759125   C384.946136,433.423584 385.042633,448.088470 384.984619,462.752838   C384.972015,465.932343 385.939545,467.804993 389.145111,469.174927   C409.590393,477.912231 419.707092,498.179413 417.050171,518.549561   C414.081299,541.311279 397.487946,556.994202 375.088654,559.433105   C358.752411,561.211853 344.902039,556.212708 333.966125,543.818665   C332.191864,541.807861 330.246460,541.351685 327.803986,541.361633   C316.805481,541.406433 305.767090,541.971008 294.814545,541.255005   C237.454834,537.504944 194.694778,511.380371 169.637283,458.583710   C159.157349,436.502228 155.539749,412.989075 157.898254,389.019012   C163.748383,329.563202 203.111237,272.227203 273.676514,258.838806   C275.632965,258.467590 277.649506,257.744446 279.562988,257.935822   C286.399841,258.619720 287.474976,254.275513 288.786896,248.957336   C310.196259,162.169556 364.066284,106.704857 450.238831,83.051033   C468.537292,78.028229 487.551361,76.005028 506.540039,76.811615   C571.929321,79.589180 627.353760,103.995781 670.304626,154.249466   C688.116638,175.089966 701.363464,198.704956 710.322388,224.651764   C711.382568,227.722519 712.631409,229.369003 716.328125,229.984634   C744.792114,234.724899 770.670410,245.628891 792.846191,264.299438   C823.657227,290.240295 843.464172,322.741425 849.438538,362.935730   C855.958496,406.800781 847.594299,447.336853 819.179565,482.076447   C793.535034,513.429443 760.892883,533.637817 720.046997,539.542419   C706.093201,541.559448 692.175232,541.260864 678.216431,541.322571   C674.956238,541.336975 672.744019,542.346680 670.454224,544.752563   C657.227966,558.649475 641.005798,563.299561 622.678162,557.986145   C604.455444,552.703186 593.292114,540.050842 589.758911,521.414795   C585.427734,498.569916 595.499207,479.145966 616.282898,469.325134   C619.035034,468.024658 619.857666,466.361389 619.842529,463.563232   C619.759460,448.232178 619.835205,432.900177 619.745544,417.569183   C619.712402,411.902985 617.868103,409.958801 612.260803,409.948792   C582.598022,409.895721 552.935059,409.976440 523.272156,409.946014   C519.763672,409.942413 518.263367,411.124207 518.278564,414.912781   C518.400269,445.242126 518.357666,475.572144 518.337585,505.901978   C518.335999,508.212921 518.698792,509.858856 521.256042,510.982758   C540.361877,519.379272 550.874695,534.387634 551.056335,554.973999   C551.236145,575.350891 541.222412,590.459778 521.985718,599.271179  M781.306885,449.828827   C806.242676,415.632446 807.839844,366.391815 784.356140,330.962769   C760.999268,295.725128 728.339233,276.878632 685.411316,277.293304   C672.539001,277.417633 668.099670,274.042084 665.557312,261.872864   C656.932068,220.587906 635.526306,187.254944 601.691650,162.513306   C561.690613,133.262421 516.570007,124.093445 468.177155,133.664307   C423.781952,142.444519 388.978546,166.592804 363.535553,203.942047   C345.502625,230.413651 335.447632,259.589966 335.302368,291.900635   C335.267792,299.597412 330.920990,305.137787 323.859650,306.071503   C319.443573,306.655457 314.877380,306.296265 310.389130,306.108063   C294.311462,305.433899 278.952240,308.252197 264.307251,315.024048   C223.560333,333.865509 199.973145,378.310730 209.523636,420.481995   C217.496719,455.688141 239.540604,478.316467 274.456787,488.025543   C291.286072,492.705231 308.546814,490.261597 325.628693,490.722595   C327.836212,490.782196 328.722107,489.149567 329.689453,487.537018   C334.927277,478.805573 342.311951,472.466949 351.796356,468.891205   C355.616211,467.451080 356.745789,465.313782 356.713470,461.447327   C356.556000,442.618439 356.576111,423.787476 356.639313,404.957611   C356.679413,393.012604 364.196594,383.958008 375.837494,381.594360   C384.917236,379.750732 394.104736,380.828186 403.235748,380.768585   C429.730194,380.595581 456.226501,380.725006 482.721863,380.661102   C489.050049,380.645813 489.537781,380.096008 489.618073,373.797272   C489.705170,366.966156 489.091278,360.076233 489.786102,353.315002   C490.712799,344.297363 488.114777,339.077789 479.477661,334.289551   C458.562805,322.694824 451.167511,295.276093 461.202545,272.683380   C470.187500,252.454727 495.050140,241.376282 516.980957,247.829315   C535.550659,253.293335 550.144592,270.598114 551.323914,288.551758   C552.839417,311.622528 542.888550,329.393036 523.257751,337.885864   C519.368530,339.568451 518.142761,341.712891 518.260620,345.762573   C518.527161,354.920013 518.336426,364.090424 518.352539,373.255524   C518.365601,380.683411 518.379211,380.699158 525.892029,380.702026   C557.886658,380.714264 589.881409,380.658569 621.875793,380.745850   C638.643250,380.791565 648.303833,390.549744 648.316101,407.160248   C648.329590,425.490509 648.360596,443.820923 648.281311,462.150818   C648.267883,465.249725 648.705872,467.531830 652.145935,468.708130   C662.166687,472.134583 669.686890,478.742035 675.119141,487.755676   C676.221191,489.584381 677.378906,490.902344 679.772705,490.822876   C690.907715,490.453125 702.070190,491.532440 713.183411,489.777527   C740.867859,485.405792 763.729370,472.831757 781.306885,449.828827  z"
   id="path1"
   style="fill-rule:nonzero;fill:#0078c9;fill-opacity:1" />
<path
   fill="#000000"
   opacity="1.000000"
   stroke="none"
   d=" M295.363953,672.595398   C304.141693,643.502686 329.955475,631.465332 358.191467,635.353149   C370.473328,637.044250 381.353363,641.359558 389.779327,650.749207   C396.834320,658.611145 400.429047,667.814209 400.342743,679.283081   C392.115784,679.283081 384.199097,679.300537 376.282593,679.268188   C374.715424,679.261841 373.989960,678.286255 373.669098,676.779724   C370.607910,662.405762 359.141510,657.688538 349.103607,657.456665   C337.573425,657.190247 327.730255,664.314880 323.205627,676.659119   C317.567322,692.041626 317.375854,707.713623 323.670624,722.942322   C330.071442,738.427612 347.770752,744.382263 362.497406,736.612122   C367.728516,733.852051 371.653503,729.852295 373.527435,724.243286   C374.627258,720.951294 376.561188,719.899170 379.824188,719.963867   C386.726318,720.100830 393.633087,720.005615 400.973694,720.005615   C399.111694,736.576477 392.106842,748.606018 378.141632,755.839111   C344.814758,773.100525 298.679718,760.083923 292.584869,711.934753   C290.911652,698.716492 291.250031,685.749268 295.363953,672.595398  z"
   id="path2"
   style="fill-rule:nonzero;fill:#0078c9;fill-opacity:1" />
<path
   fill="#000000"
   opacity="1.000000"
   stroke="none"
   d=" M718.858887,731.507935   C711.856812,751.063782 697.051025,759.681213 677.915771,762.344543   C662.854675,764.440918 648.747498,761.653748 636.102661,752.991882   C623.215698,744.164062 616.726379,731.156189 614.064941,716.314636   C611.184448,700.251221 611.677551,684.209717 617.514221,668.665100   C626.292358,645.286560 644.495361,636.059265 664.817566,634.782532   C681.484680,633.735352 697.036682,637.249573 709.181702,649.837891   C716.888550,657.826050 720.614319,667.474854 720.318359,679.304626   C712.076050,679.304626 704.300415,679.309265 696.524780,679.301941   C693.977905,679.299500 693.883606,677.309875 693.418274,675.529175   C690.519531,664.436157 682.688293,658.820251 671.884705,657.640442   C661.702942,656.528564 653.276306,660.568726 647.408936,669.124756   C636.998901,684.305054 636.942322,713.320312 647.376465,728.538940   C653.551270,737.545044 662.673340,740.652161 673.107239,739.525635   C682.724243,738.487244 690.013794,733.528748 693.524292,724.204224   C694.743530,720.965515 696.562805,719.868591 699.831177,719.963501   C705.322998,720.123108 710.824219,720.074768 716.318909,719.971924   C719.822083,719.906372 721.940002,720.649536 720.473694,724.838013   C719.765503,726.861145 719.484253,729.033752 718.858887,731.507935  z"
   id="path3"
   style="fill-rule:nonzero;fill:#0078c9;fill-opacity:1" />
<path
   fill="#000000"
   opacity="1.000000"
   stroke="none"
   d=" M501.023346,739.294067   C501.229034,745.246033 501.200165,750.744263 501.366211,756.236633   C501.457245,759.247253 500.215668,760.352905 497.236053,760.345947   C471.410645,760.285645 445.584930,760.285522 419.759521,760.347656   C416.775513,760.354858 415.396210,759.242493 415.660370,756.238953   C415.689392,755.908630 415.660889,755.572815 415.653168,755.239685   C415.314148,740.607178 415.247742,740.532288 426.337799,730.715759   C438.820221,719.666870 450.925873,708.231567 462.486359,696.223572   C468.738983,689.728882 473.760529,682.587708 473.635529,673.026123   C473.522949,664.414978 467.893890,658.382690 459.198059,657.450317   C451.138977,656.586121 444.200195,661.693359 442.383728,669.826355   C440.694214,677.390808 440.694244,677.394226 432.928589,677.405945   C428.929779,677.411987 424.930908,677.421021 420.932220,677.397217   C414.602417,677.359497 413.924896,676.755310 414.775024,670.497009   C416.725708,656.136841 423.592560,645.132019 437.242981,639.201172   C451.562134,632.979858 466.143799,632.969360 480.365173,639.140503   C500.212067,647.752686 504.921509,670.237305 496.928864,688.863159   C494.275085,695.047424 490.265656,700.398438 485.658966,705.254883   C476.596069,714.809082 467.179688,723.997559 456.961365,732.335510   C455.311584,733.681763 453.826813,735.230164 451.189362,737.688354   C455.722504,737.688354 458.963104,737.687988 462.203735,737.688416   C473.200439,737.690002 484.197327,737.662354 495.193726,737.721619   C497.121979,737.732056 499.238495,737.164246 501.023346,739.294067  z"
   id="path4"
   style="fill-rule:nonzero;fill:#0078c9;fill-opacity:1" />
<path
   fill="#000000"
   opacity="1.000000"
   stroke="none"
   d=" M608.335571,653.886719   C609.053162,659.080444 606.828125,660.416931 602.373718,660.257080   C594.553711,659.976562 586.708801,660.374329 578.890503,660.070251   C574.434998,659.896851 573.219788,661.530212 573.242920,665.844238   C573.399109,694.996582 573.325317,724.150208 573.317383,753.303406   C573.315430,760.315552 573.300598,760.319702 566.097717,760.331604   C561.433228,760.339294 556.745728,760.043457 552.110474,760.411438   C547.159363,760.804504 545.496460,759.215088 545.539368,754.035950   C545.777832,725.217957 545.654907,696.396851 545.649658,667.576843   C545.648315,660.196716 545.638428,660.185242 538.191406,660.166077   C530.361694,660.145935 522.530212,660.050781 514.703125,660.190979   C511.301483,660.251953 509.798431,658.999756 509.925079,655.541077   C510.077454,651.381287 510.200684,647.201294 509.960785,643.051697   C509.721527,638.913147 511.323029,637.571777 515.445679,637.600891   C537.267822,637.754883 559.091736,637.668945 580.914978,637.667603   C588.411499,637.667114 595.911438,637.803894 603.403137,637.614258   C606.982361,637.523743 608.648682,638.586060 608.388794,642.411865   C608.140991,646.059937 608.336487,649.738220 608.335571,653.886719  z"
   id="path5"
   style="fill-rule:nonzero;fill:#0078c9;fill-opacity:1" />
<path
   fill="#000000"
   opacity="1.000000"
   stroke="none"
   d=" M355.766632,844.000000   C355.764130,832.175659 355.866577,820.849731 355.698761,809.527893   C355.644318,805.856323 356.912292,804.360291 360.606079,804.617554   C363.589111,804.825195 366.604218,804.772949 369.594421,804.623047   C372.871094,804.458801 375.616028,804.853943 375.729919,809.730774   C382.077087,804.563965 388.588898,802.200378 396.082977,803.102600   C403.342926,803.976562 409.614410,806.551819 413.486877,812.884521   C415.069427,813.134216 415.527710,812.054626 416.153198,811.365417   C424.545288,802.117432 435.189331,801.799805 446.065002,804.602722   C456.667786,807.335449 460.693817,816.185547 461.114685,825.896667   C461.827728,842.351013 461.285583,858.859863 461.248962,875.345764   C461.247925,875.813965 460.996582,876.281677 460.766083,877.082642   C455.060028,877.082642 449.311951,877.082642 443.544922,877.082642   C442.142639,875.482361 442.685211,873.566589 442.678314,871.806580   C442.627380,858.817078 442.740784,845.826294 442.600861,832.838135   C442.541504,827.330139 441.370636,822.098389 435.549500,819.614563   C426.801025,815.881714 418.538330,822.074463 418.396912,832.652588   C418.227753,845.306946 418.351257,857.965271 418.348145,870.621887   C418.347656,872.605347 418.348053,874.588745 418.348053,877.018188   C412.094055,877.018188 406.223907,877.018188 400.118011,877.018188   C399.144135,872.596436 399.722504,868.114014 399.679138,863.678772   C399.579865,853.521118 399.686188,843.361633 399.635742,833.203247   C399.589386,823.869873 395.383942,818.422058 388.353882,818.424622   C381.099396,818.427246 375.478058,824.549744 375.323059,833.268005   C375.092255,846.253418 375.067657,859.247070 375.263123,872.232666   C375.326019,876.413269 373.994141,877.934387 369.824493,877.512268   C366.693542,877.195129 363.490448,877.294250 360.342285,877.522766   C356.881958,877.773926 355.626678,876.490784 355.693665,872.976562   C355.874634,863.487366 355.762482,853.992554 355.766632,844.000000  z"
   id="path6"
   style="fill-rule:nonzero;fill:#0078c9;fill-opacity:1" />
<path
   fill="#000000"
   opacity="1.000000"
   stroke="none"
   d=" M615.432007,833.731018   C617.499939,840.611938 619.489136,847.096741 621.843445,854.772034   C625.983704,838.885742 629.926025,824.213989 633.564575,809.467285   C634.439148,805.922791 635.908508,804.380066 639.640747,804.602417   C644.086243,804.867188 648.559509,804.664856 652.790283,804.664856   C653.920471,807.102295 652.982544,808.772278 652.458801,810.475830   C646.110352,831.127625 639.666077,851.750732 633.485229,872.452576   C632.398865,876.090881 630.830078,877.597168 626.932068,877.477356   C609.235352,876.933350 613.899353,880.344360 608.799744,864.024292   C605.442383,853.279541 602.383301,842.441467 598.238220,831.643555   C594.966187,842.561951 591.644897,853.465820 588.434814,864.402405   C584.621399,877.394592 584.657349,877.192261 571.225464,877.540771   C566.580261,877.661377 564.688049,876.338867 563.370667,871.735657   C557.518127,851.285339 551.154358,830.981384 545.001221,810.616760   C544.530762,809.059692 543.593567,807.560120 544.287842,805.179810   C549.577942,804.162354 555.160767,804.501038 560.681763,804.973022   C562.864380,805.159668 562.773071,807.759949 563.227173,809.404663   C566.939819,822.850281 570.539734,836.327087 574.186523,849.790955   C574.486511,850.898438 574.879822,851.980774 575.498047,853.913635   C579.154968,844.762878 581.124878,835.925415 583.699219,827.284485   C585.597168,820.914185 587.515076,814.547058 589.236877,808.128296   C589.910339,805.617615 591.196167,804.737549 593.774902,804.600586   C606.834351,803.906799 606.811401,803.845032 610.435486,816.599792   C612.024536,822.192444 613.710938,827.757446 615.432007,833.731018  z"
   id="path7"
   style="fill-rule:nonzero;fill:#0078c9;fill-opacity:1" />
<path
   fill="#000000"
   opacity="1.000000"
   stroke="none"
   d=" M802.644836,850.999878   C802.644470,828.008911 802.775208,805.516541 802.539612,783.028015   C802.489563,778.254761 803.967651,776.726074 808.545105,777.487793   C810.654480,777.838806 812.867188,777.605835 815.032288,777.578552   C821.338013,777.499146 821.345032,777.487427 821.347656,784.062866   C821.353027,797.390869 821.349792,810.718933 821.350220,824.046936   C821.350281,825.834717 821.350220,827.622437 821.350220,830.116455   C824.357666,828.766968 825.835144,826.742920 827.479309,825.028931   C833.013733,819.259399 838.513672,813.453552 843.888977,807.536377   C845.706299,805.535645 847.617981,804.532532 850.377625,804.607361   C856.277100,804.767456 862.183899,804.656372 868.144775,804.656372   C868.072937,807.415161 866.441772,808.242981 865.355652,809.397400   C858.850403,816.312073 852.405151,823.288391 845.719849,830.025879   C843.094482,832.671753 843.020996,834.767517 845.089172,837.796387   C852.696106,848.936157 860.081238,860.227600 867.535767,871.471252   C868.621155,873.108276 869.630066,874.795898 871.240173,877.361938   C863.522034,877.361938 856.668030,877.446655 849.818970,877.300720   C848.163391,877.265442 847.618469,875.421387 846.830750,874.181274   C841.920166,866.450500 837.031311,858.705933 832.138123,850.964111   C831.169128,849.431152 830.441223,847.700562 828.339233,846.592896   C824.319946,849.144226 820.889038,851.864929 821.259766,857.707397   C821.658813,863.995422 821.349915,870.328308 821.349915,877.035583   C815.049805,877.035583 809.174622,877.035583 802.645203,877.035583   C802.645203,868.390381 802.645203,859.945190 802.644836,850.999878  z"
   id="path8"
   style="fill-rule:nonzero;fill:#0078c9;fill-opacity:1" />
<path
   fill="#000000"
   opacity="1.000000"
   stroke="none"
   d=" M217.316330,827.063477   C217.187943,838.885376 218.486343,837.206604 207.438141,837.329163   C199.449036,837.417786 191.450989,837.564697 183.471222,837.281860   C179.207809,837.130737 178.020218,838.771912 178.100403,842.784485   C178.296600,852.601440 178.036911,862.427185 178.207169,872.245178   C178.273529,876.072327 177.031174,877.697754 173.045563,877.472351   C168.425400,877.211121 163.779144,877.411560 159.198380,877.411560   C157.695892,874.335938 158.665070,871.485046 158.657654,868.741821   C158.581070,840.444092 158.721893,812.145325 158.521072,783.848877   C158.486465,778.971741 160.030411,777.638611 164.789154,777.712646   C181.430878,777.971741 198.080826,777.929688 214.723984,777.716553   C219.072189,777.660889 220.786102,778.971313 220.411591,783.399536   C220.093857,787.156433 220.346024,790.961487 220.346024,795.400208   C210.623291,795.400208 201.519806,795.399353 192.416306,795.400452   C178.162323,795.402100 178.101608,795.403015 178.188751,809.828918   C178.265717,822.569031 176.763733,820.464722 189.076935,820.630432   C196.566238,820.731140 204.070175,820.910095 211.544189,820.558167   C216.268921,820.335632 217.927917,822.139404 217.316330,827.063477  z"
   id="path9"
   style="fill-rule:nonzero;fill:#0078c9;fill-opacity:1" />
<path
   fill="#000000"
   opacity="1.000000"
   stroke="none"
   d=" M731.306519,826.036255   C737.227905,844.459351 732.695679,862.389832 719.857788,872.178711   C707.997131,881.222351 688.305359,882.135986 675.475281,874.237854   C663.216431,866.691223 656.725647,850.203796 658.847595,835.053467   C663.679016,800.557129 701.645325,796.471619 720.230835,810.491821   C725.445984,814.425903 728.936462,819.589111 731.306519,826.036255  M694.154175,818.889893   C686.027588,820.178833 681.143555,825.116699 678.821716,832.759644   C676.986023,838.802185 677.222107,844.879944 679.207397,850.857483   C681.965881,859.163208 688.428589,863.828247 696.775085,863.646912   C704.853577,863.471497 711.249268,858.134399 713.628174,849.844482   C714.943604,845.260498 715.012878,840.593750 714.480469,835.997925   C713.233643,825.234924 705.781677,818.818542 694.154175,818.889893  z"
   id="path10"
   style="fill-rule:nonzero;fill:#0078c9;fill-opacity:1" />
<path
   fill="#000000"
   opacity="1.000000"
   stroke="none"
   d=" M472.321411,848.269226   C470.626495,835.870789 472.227203,824.632507 479.866699,814.803101   C488.660583,803.488220 504.919006,800.614014 519.042175,805.022400   C531.490112,808.907776 539.825623,820.842346 540.309326,834.736816   C540.423950,838.029846 540.326233,841.330383 540.326233,845.405762   C536.302002,845.405762 532.703308,845.405640 529.104553,845.405823   C518.114075,845.406494 507.123535,845.379944 496.133209,845.420593   C491.286713,845.438477 490.616089,846.401489 491.893341,851.102051   C494.804535,861.815613 504.109985,867.243713 513.488586,863.759033   C515.755127,862.916870 518.043213,861.731750 518.993835,859.683289   C521.299133,854.715576 524.757812,854.089722 529.530823,855.537781   C532.489197,856.435364 535.658386,856.637756 538.698792,857.146484   C537.378235,869.430054 524.439392,878.839355 509.868561,879.465149   C486.364288,880.474609 474.251953,864.914551 472.321411,848.269226  M520.651672,827.730957   C517.728149,820.300110 512.020325,816.756714 504.878357,817.939026   C496.870178,819.264832 492.504456,823.963440 491.946289,832.580444   C501.044647,832.580444 510.118042,832.685852 519.186523,832.519287   C522.090881,832.466003 521.386108,830.261414 520.651672,827.730957  z"
   id="path11"
   style="fill-rule:nonzero;fill:#0078c9;fill-opacity:1" />
<path
   fill="#000000"
   opacity="1.000000"
   stroke="none"
   d=" M330.655029,807.101685   C339.247314,812.093140 341.915100,819.981628 342.244629,828.800903   C342.586426,837.947205 342.319031,847.115784 342.343842,856.274536   C342.362244,863.069397 341.990906,869.883057 343.803131,877.296387   C337.858612,877.296387 332.457825,877.288330 327.057068,877.299683   C324.212341,877.305664 325.263611,874.019043 323.065430,872.840393   C314.963501,879.889465 305.281738,880.758118 295.110077,878.388367   C285.941925,876.252502 279.785583,869.786682 278.733398,861.666260   C277.504913,852.185242 282.193359,843.336365 290.722809,838.888489   C298.816620,834.667786 307.712067,834.738159 316.454132,833.840088   C318.933319,833.585388 322.475464,835.520203 323.581543,831.375000   C324.922760,826.348511 322.949036,821.310242 319.000763,819.192261   C312.484772,815.697021 303.283936,817.899719 299.769958,824.397339   C297.875427,827.900635 295.999084,828.685364 292.307007,827.600586   C288.685547,826.536560 284.804108,826.367432 280.800232,824.551941   C282.354675,816.488892 286.718170,810.404724 294.060394,807.162231   C305.974487,801.900757 318.200684,801.693298 330.655029,807.101685  M323.792236,850.483459   C323.800507,848.606750 323.912415,846.545532 321.281555,846.442566   C314.949371,846.194702 308.556702,845.959106 302.638397,848.740356   C298.782654,850.552368 296.967987,853.904907 297.446716,858.136841   C297.951477,862.598816 301.129272,864.743713 305.173889,865.493347   C314.619904,867.244080 322.690369,861.001160 323.792236,850.483459  z"
   id="path12"
   style="fill-rule:nonzero;fill:#0078c9;fill-opacity:1" />
<path
   fill="#000000"
   opacity="1.000000"
   stroke="none"
   d=" M230.767059,847.000000   C230.770004,834.181030 230.868591,821.860962 230.717590,809.543884   C230.673141,805.918274 231.844299,804.298645 235.580734,804.619019   C237.894272,804.817322 240.238800,804.651550 242.569412,804.653564   C249.793640,804.659668 249.793640,804.660400 250.880905,811.946411   C256.407928,804.977417 263.570618,803.029419 271.808746,803.564697   C274.953735,803.769043 276.493500,804.764404 276.213318,807.993347   C276.184662,808.323486 276.229675,808.659180 276.219452,808.991699   C276.096741,812.974121 277.211639,817.629150 275.514984,820.760132   C273.601929,824.290588 268.530792,821.842773 264.881378,822.387573   C255.687225,823.760010 250.518600,830.083008 250.378891,840.876709   C250.249619,850.863403 250.345200,860.853088 250.342041,870.841431   C250.341415,872.812439 250.341949,874.783447 250.341949,877.332214   C244.424026,877.332214 238.995636,877.390930 233.569366,877.308655   C230.640182,877.264343 230.796341,874.970459 230.789688,872.970215   C230.761459,864.480225 230.771378,855.990112 230.767059,847.000000  z"
   id="path13"
   style="fill-rule:nonzero;fill:#0078c9;fill-opacity:1" />
<path
   fill="#000000"
   opacity="1.000000"
   stroke="none"
   d=" M782.383057,822.331421   C770.735962,823.839172 765.522705,830.307556 765.380249,843.254517   C765.257751,854.392456 765.354797,865.532837 765.354797,877.076294   C759.227234,877.076294 753.327393,877.076294 747.196472,877.076294   C746.323547,876.380615 746.618652,875.146362 746.618408,874.017517   C746.613953,852.718201 746.705017,831.418335 746.559875,810.120056   C746.532715,806.133911 747.561768,804.298645 751.846252,804.595703   C756.116760,804.891785 760.423828,804.660645 764.912964,804.660645   C765.208984,807.380310 765.438293,809.487000 765.788452,812.704224   C771.538208,805.637512 778.441467,803.039062 786.731628,803.550232   C790.085449,803.756958 791.690125,804.691223 791.366882,808.205383   C791.199951,810.020081 791.357666,811.863525 791.345764,813.693848   C791.281799,823.550293 792.077332,822.147949 782.383057,822.331421  z"
   id="path14"
   style="fill-rule:nonzero;fill:#0078c9;fill-opacity:1" />
</svg>
